<?xml version="1.0" encoding="iso-8859-1"?>
<!-- Uploaded to: SVG Repo, www.svgrepo.com, Generator: SVG Repo Mixer Tools -->
<svg height="800px" width="800px" version="1.1" id="Layer_1" xmlns="http://www.w3.org/2000/svg" xmlns:xlink="http://www.w3.org/1999/xlink" 
	 viewBox="0 0 512 512" xml:space="preserve">
<path style="fill:#9ED368;" d="M0,256.006C0,397.402,114.606,512.004,255.996,512C397.394,512.004,512,397.402,512,256.006
	C512.009,114.61,397.394,0,255.996,0C114.606,0,0,114.614,0,256.006z"/>
<path style="fill:#8BC052;" d="M512,256.005c0.001-16.881-1.678-33.365-4.795-49.333c-0.375-0.381-0.75-0.762-1.134-1.134
	c-0.489-0.502-103.55-103.566-104.052-104.052c-13.006-13.354-31.171-21.696-51.281-21.696c-11.317,0-21.99,2.703-31.513,7.386
	c-0.274-0.247-0.479-0.553-0.788-0.762c-0.461-0.532-15.76-15.949-16.352-16.352c-1.129-1.305-2.57-2.356-4.386-2.745
	c-13.451-2.871-27.19-4.332-40.846-4.332c-2.346,0-4.672,0.08-7.536,0.193c-0.001,0-0.002,0.001-0.002,0.001l-0.01-0.001
	C144.827,67.173,62.987,151.874,62.987,256c0,52.58,20.912,100.163,55.026,134.945c0.484,0.505,118.429,118.418,118.917,118.917
	c0.479,0.5,0.981,0.973,1.468,1.468c5.822,0.395,11.677,0.669,17.599,0.669C397.394,512.004,512,397.401,512,256.005z"/>
<g>
	<path style="fill:#F4F6F9;" d="M448.937,282.317c0.618-4.492-2.527-8.639-7.022-9.257c-4.455-0.602-8.635,2.527-9.252,7.026
		c-2.24,16.349-6.737,31.939-13.141,46.482c-1.031-0.466-2.156-0.755-3.361-0.755h-67.813c6.982-22.22,10.676-45.716,10.676-69.813
		c0-4.54-3.678-8.213-8.213-8.213c-4.535,0-8.213,3.674-8.213,8.213c0,24.201-4.074,47.718-11.617,69.813H174.128
		c-8.17-22.098-12.581-45.616-12.581-69.813s4.413-47.715,12.581-69.813h77.765c4.535,0,8.213-3.674,8.213-8.213
		c0-4.54-3.678-8.213-8.213-8.213h-70.871c15.845-33.5,40.868-62.89,73.323-85.018c0.233,0.167,0.467,0.323,0.7,0.493
		c1.525,1.113,3.076,2.128,4.585,3.292c4.391,3.389,8.72,6.967,12.934,10.762c0.817,0.735,1.745,1.255,2.721,1.606
		c0.308,0.11,0.629,0.099,0.945,0.172c0.607,0.14,1.206,0.332,1.824,0.332c0.074,0,0.142-0.043,0.217-0.045
		c0.702-0.018,1.367-0.229,2.045-0.426c0.374-0.108,0.759-0.117,1.118-0.278c1.007-0.453,1.945-1.098,2.73-1.97
		c0.759-0.843,1.311-1.798,1.66-2.805c1.045-3.023,0.261-6.512-2.266-8.793c-2.534-2.278-5.105-4.499-7.705-6.65
		c6.176,0.666,12.329,1.645,18.416,2.944c4.451,0.987,8.799-1.877,9.749-6.313c0.946-4.435-1.881-8.799-6.317-9.745
		c-13.451-2.871-27.19-4.332-40.846-4.332c-2.346,0-4.672,0.08-7.536,0.192c-0.001,0-0.002,0.001-0.002,0.001l-0.01-0.001
		C144.827,67.173,62.986,151.873,62.986,256s81.841,188.827,186.32,192.821c0.105,0.009,0.212,0.009,0.317,0.009
		c0.032,0,0.059-0.017,0.091-0.018c0.05,0.002,0.092,0.032,0.142,0.034c0.275,0.011,0.553,0.01,0.828,0.02
		c0.405,0.061,0.806,0.148,1.217,0.148c0.238,0,0.474-0.082,0.711-0.102c1.411,0.043,2.819,0.102,4.241,0.102
		c0.814,0,1.606-0.101,2.418-0.112c0.276,0.028,0.55,0.112,0.827,0.112c0.634,0,1.259-0.094,1.872-0.237
		C356.228,446.279,436.151,375.651,448.937,282.317z M324.61,342.24c-14.831,33.946-38.381,63.65-68.945,85.877
		c-33.086-22.226-58.588-51.931-74.645-85.877H324.61z M231.161,81.342c-30.338,24.015-53.551,54.411-68.196,88.418h-60.975
		C128.244,122.951,175.203,89.335,231.161,81.342z M94.005,185.817c0.607,0.143,1.183,0.37,1.834,0.37h60.772
		c-7.514,22.217-11.492,45.712-11.492,69.813c0,24.101,3.979,47.597,11.492,69.813H95.839c-0.656,0-1.237,0.227-1.85,0.373
		C84.67,304.666,79.412,280.974,79.412,256C79.412,231.024,84.685,207.339,94.005,185.817z M101.973,342.24h60.991
		c14.649,34.014,37.866,64.414,68.211,88.431C175.209,422.679,128.23,389.057,101.973,342.24z M278.539,431.093
		c28.439-24.084,50.207-54.634,63.899-88.853h69.141C384.326,390.352,335.129,424.111,278.539,431.093z"/>
	<path style="fill:#F4F6F9;" d="M279.232,150.999c0,39.27,32.079,71.217,71.506,71.217c13.732,0,26.529-3.942,37.434-10.654
		l39.498,49.202c1.62,2.021,4.006,3.072,6.409,3.072c1.805,0,3.621-0.593,5.137-1.805c3.537-2.847,4.102-8.013,1.263-11.55
		l-39.348-49.017c13.029-12.907,21.114-30.761,21.114-50.466c0-39.262-32.079-71.209-71.506-71.209S279.232,111.738,279.232,150.999
		z M350.737,96.217c30.371,0,55.079,24.576,55.079,54.782c0,30.214-24.708,54.79-55.079,54.79s-55.079-24.576-55.079-54.79
		C295.659,120.793,320.367,96.217,350.737,96.217z"/>
</g>
</svg>